<svg width="22" height="17" viewBox="0 0 22 17" fill="none" xmlns="http://www.w3.org/2000/svg">
<path d="M12.1511 4.05C15.4788 4.05 17.3661 6.1749 17.6402 8.7399H17.7239C19.865 8.7399 21.6011 10.4099 21.6011 12.4699C21.6011 14.53 19.865 16.2 17.7239 16.2H6.57825C4.43715 16.2 2.70105 14.53 2.70105 12.4699C2.70105 10.4099 4.43715 8.7399 6.57825 8.7399H6.66195C6.9387 6.15735 8.8233 4.05 12.1511 4.05ZM8.63025 4.7055e-08C10.5959 4.7055e-08 12.3104 1.1178 13.1568 2.76075C12.8231 2.71965 12.4872 2.69936 12.1511 2.7C8.92455 2.7 6.57285 4.46445 5.73315 7.1361L5.64945 7.425L5.58735 7.67745L5.3646 7.71795C4.54916 7.88355 3.78747 8.24865 3.14762 8.7806C2.50778 9.31255 2.00973 9.99476 1.698 10.7662C1.05488 10.3744 0.553478 9.78768 0.266698 9.09133C-0.0200817 8.39499 -0.077297 7.62532 0.10337 6.89422C0.284036 6.16313 0.693168 5.5087 1.27129 5.02609C1.84941 4.54347 2.56639 4.25782 3.318 4.21065L3.6177 4.2039C3.82587 3.02579 4.44241 1.95868 5.35907 1.1899C6.27572 0.421126 7.4339 -0.000162562 8.63025 4.7055e-08Z" fill="#2BBA81"/>
</svg>
